<svg xmlns="http://www.w3.org/2000/svg" width="2500" height="2500" viewBox="0 0 192.756 192.756"><g fill-rule="evenodd" clip-rule="evenodd"><path fill="#fff" d="M0 0h192.756v192.756H0V0z"/><path fill="#335799" d="M48.596 97.443v30.528h9.611v-10.985h6.622l2.665-6.703h-9.287v-6.219h11.306l2.504-6.621H48.596zM75.005 127.971h9.529V97.443h-9.529v30.528zM120.473 97.523l-10.984 30.527h9.207l1.211-4.199h10.66l1.293 4.199h9.449l-10.984-30.527h-9.852zm4.763 7.834l-3.715 12.68h7.512l-3.797-12.68zM91.237 97.443v30.528h9.611v-10.985h6.703l2.666-6.703h-9.369v-6.219h11.306l2.504-6.621H91.237zM43.186 83.794c.162.242.242.484.323.727.081.323.081.565 0 .888-.081.242-.242.484-.484.727a1.563 1.563 0 0 1-.727.404c-.243.081-.565 0-.808-.081a1.563 1.563 0 0 1-.727-.404c-.242-.242-.323-.484-.404-.727-.081-.323-.081-.646 0-.889.081-.323.242-.565.484-.727.162-.162.485-.323.727-.404.323-.081.565-.081.889.081.242.083.484.244.727.405zm-.243.162c-.161-.161-.323-.242-.565-.323-.242-.081-.485-.081-.727-.081a1.773 1.773 0 0 0-.646.403c-.162.162-.323.323-.404.566 0 .242-.081.484 0 .727s.162.404.323.565c.161.242.404.323.646.404s.404.081.646 0c.243 0 .484-.162.646-.323.162-.161.323-.323.404-.565a1.118 1.118 0 0 0 0-.727 2.381 2.381 0 0 0-.323-.646zm-2.18 1.05l1.292-1.211.404.484.323.323v.323c0 .081-.081.161-.162.242-.081.081-.161.081-.323.081-.081 0-.243-.081-.323-.162v.162c0 .162 0 .243-.081.485l-.081.323-.242-.242.081-.242c.081-.242.081-.404.081-.565 0 0 0-.081-.081-.162l-.081-.161-.565.565-.242-.243zm.969-.485l.242.242c.081.162.162.242.242.242.081 0 .162 0 .243-.081 0 0 0-.081.081-.162 0 0 0-.081-.081-.081 0-.081-.081-.162-.162-.243l-.162-.242-.403.325zM87.684 72.811c.081 1.535-.081 3.473-.808 5.411-.323.404-.646.889-1.131 1.292a.629.629 0 0 0-.323-.323c-.404-.161-1.05-.403-1.454-.484-.243 0-.808 0-1.05.404-.162.242-.323.323-.646.323-.161 0-.404.081-.484.404-.081.323-.242.889-.565.889-.242.081-.889.081-.969.242-.081.162-.242.727-.484.969-.162.162-.323.404-.565.162-.323-.243-.485-.808-.566-.969-.081-.242-.242-.565-.404-.727-.242-.162-.403-.243-.403-.565 0-.485 0-.646-.162-.889-.161-.242-.403-.888-.403-1.211.081-.323.162-.808.403-.97.162-.161.969-.969 1.05-1.13.162-.162.404-.484.404-.808.081-.242.081-.565.081-.969 0-.484-.081-.484.08-.646.162-.162.242-.162.485-.162s.404 0 .565-.242c.162-.403.243-.808.485-1.13.161-.323.403-.404.565-.484.162-.081.565-.081.646-.081.162.081.162.162.242.242 0 .162.081.565.404.727.161.161.484.484.808.323.323-.081.403-.081.403-.404v-1.05c0-.323-.081-.646.161-.646.323 0 .485.161.646.323.162.323.646.727.889.969.242.323.565.565 1.13.808.405.079.728.321.97.402zM79.608 58.84c-.888-2.584-1.857-4.522-2.665-5.815l4.442-6.057c1.777.162 4.28.565 6.703 2.1-.161.485-.323.727-.161 1.131.081.323-.162.646-.162.727 0 .162-.081.404-.081.485 0 .161-.081.565-.081.807 0 .162 0 .565-.161.727-.242.081-.323.323-.727.081-.323-.242-.485-.484-.808-.565-.242-.161-.323-.161-.484 0-.081.162-.323.404-.081.727.081.243.323.485.403.646.081.242.081.323 0 .485-.081.162-.242.323-.161.727.081.323.081.888.161 1.292 0 .242-.081.484-.161.646-.081.081-.081.243-.081.323 0 0-.081.323-.404.484-.323.162-.888.404-1.05.485-.161.243-.564.404-.403 1.131.081.404-.161 1.211-.081 1.292.081.162.161.565-.081.727-.323.081 0 0-.243.081-.161 0-.403.161-.242.565.162.243.242.728.242 1.05 0 .242-.403.565-.646.484-.404-.162-.808-.646-1.05-1.05-.081-.242-.242-.969-.323-1.373-.081-.565-.727-.565-1.05-.808 0 0-.081 0-.081-.081-.16-.485-.321-.889-.483-1.454zM57.157 67.481a33.094 33.094 0 0 0 4.361 3.957c-.162.243-.646.889-.646 1.131 0 .404-.081 1.211-.161 1.454-.081.161-.565.565-.727.969-.081.242-.162.646-.404.889-.323.403-.404.727-.727.969-.484.323-.888.485-1.05.565-.242 0-.404 0-.646.081-.242.162-.888.162-1.13.162-.323 0-.646-.162-.727-.484 0-.404-.081-.646-.404-.889-.242-.323-.404-1.13-.565-1.454-.081-.323-.565-1.211-.727-1.534-.081-.243-.323-.888-.243-1.615.081-.404.323-1.05.323-1.535 0-.484 0-1.13-.081-1.534l3.554-1.132zM49.565 48.907l.162-.081c.242-.081.565-.081.889-.081.323.162.565.242.727.323.161.081.323.162.484 0 .081-.161.242-.161.404-.161.323 0 .404 0 .404-.243 0-.242 0-.646-.162-1.05.485-.162 1.05-.323 1.535-.404.161.081.242.081.323.162.161.081.242.242.808.242.403 0 .565-.081.808-.081.081 0 .161 0 .323-.081l4.119 5.572c-.242.242-.323.485-.484.728-.243-.081-.727-.243-.808-.728-.081-.403-.243-.808-.323-1.05-.081-.161-.565-.808-.727-1.05-.242-.242-.565-.808-.888-1.05-.323-.161-.565-.081-.565.162.081.242 0 .404.243.646 0 .162.081.242.081.404 0 .242.081.404.161.646.162.162.727.727.808.889.162.161.243.323.243.403-.082.162-.082.242-.162.162-.162-.162-.242-.242-.484-.242-.081 0-.161 0-.161.081 0 .242-.081.565-.162.728-.081.322-.565.727-.727.565-.081-.081-.081-.243 0-.565 0-.243.081-.566 0-.97a1.838 1.838 0 0 0-.484-.888c-.323-.242-.404-.727-.485-1.05s-.162-.808-.565-.808h-.727c-.242.081-.403.081-.484.242-.161.243-.161.404-.646.485-.485.081-.888 0-.888.323 0 .242-.081.565-.404.565-.404 0-.727-.081-.969.162-.323.161-.404.484-.565.242-.081-.081-.081-.081-.242-.162-.485-.242-.565-.242-.646-.323-.162-.161-.404-.484-.323-.646.08-.242.323-.969.403-1.05v-.727c-.005-.08.075-.161.156-.241zm8.157 9.933c-.808 2.584-1.211 4.765-1.292 6.218l-3.392 1.131c0-.323.081-.565.081-.808.162-.323.162-.646-.161-.969-.162-.162-.242-.081-.404-.081-.161-.081-.565-.242-.727-.404-.081-.242-.242-.485-.646-.485-.323 0-.727-.081-1.211.081-.565.081-.404.323-1.05.162-.646-.162-.888-.323-1.292-.646-.243-.242-.484-.404-.889-1.131-.323-.646-.323-.727-.565-1.05-.242-.162-.323-.404-.323-.727 0-.323-.162-1.05 0-1.454.323-.484.727-1.13.808-1.534 0-.243.404-.889.646-1.131.161-.242.323-.484.404-.646.243-.081.727-.323.888-.565.243-.081.565-.484.727-.565.161-.081.485-.243.646-.404.162-.08.242-.161.323-.242.08 0 .161-.161.484 0 .162.081.484.242.969.242.323 0 .727.162 1.05 0 .323-.08.646-.08.888 0 .162.162.323.242.646.485.161.242.403.404.323.727-.081.161-.162.242-.081.403.161.404.323.485.565.565.08.081.808 0 .888.162.161.081.565.565.808.565.161 0 .323.081.485-.243.242-.242.484-.403.726-.323.082 0 .323.081.646.162-.402.728-.726 1.617-.968 2.505zM92.125 50.683c0 .242-.161.808-.404 1.211-.162.565-.646 1.05-.969 1.292-.403.162-.565.485-.808.808-.242.162-.646.323-.646.565-.081.162.081.162.242.162.242.081.403 0 .565 0 .161-.081.565-.242.646.081.162.323.485.404.565 0 0-.242.242-.565.485-.727.242-.322.808-.808 1.05-1.211.162-.404.565-1.211.484-1.857 0-.728-.242-1.131-.323-1.211-.162-.081-.404-.404-.565.081-.079.322-.24.402-.322.806zM63.375 74.265c.081.403.081.646-.081 1.13-.161.404-.403.888-.565 1.13-.242.242-.403.323-.727.242-.161-.081-.243-.323-.243-.646 0-.242.162-.646.162-.969 0-.242.404-.646.565-.646.081-.162.323-.242.565-.404.082-.16.324-.16.324.163zM89.784 67.4c.323.404.484.646.646.888.323.162.566.323.727.565.161.404.484.889.646 1.05.242.323.646.727.888.646.323 0 .323-.081.323-.323 0-.323 0-.565-.404-1.05-.404-.484-.727-.888-.969-1.373-.323-.323-.646-.969-1.05-1.05-.404-.162-.727-.242-.888 0-.243.163-.161.405.081.647zM84.454 63.443c-.404.243-.484.565-.484.889 0 .404 0 .646.403.646.404.081.727 0 .97-.162.242-.081.161-.404.161-.565 0-.161-.081-.727-.242-.888-.162-.081-.324-.323-.808.08zM68.625 50.845c-2.666 0-4.927.484-6.299.808l-3.876-5.25c.242-.081.403-.081.565 0 .242.081.323 0 .646.162.404.162 1.05.162 1.211.162.162 0 .565 0 .808.161.243 0 .889-.161 1.05-.323.323-.162.162-.323.081-.485-.081-.242-.323-.565.081-.888.323-.323.646-.404.888-.808.242-.484.162-.808 0-.969a.496.496 0 0 0-.565.081c-.323.081-.404.242-.727.162-.081 0-.484.081-.727.161-.081.081-.484.404-.807.727-.081.242-.242 1.05-.485 1.13-.484.081-1.292-.242-1.211-.807.081-.243.323-.485.243-.646-.162-.242-.243-.323-.485-.242h-.403c.323-.565.727-1.292 1.211-1.938.162-.081.323-.162.646-.162.323-.162 1.696-.565 1.938-.727.323-.081 1.05-.323 1.13-.404.081-.081.243-.081.485 0 .162 0 .646.162 1.05-.242.242-.242.484-.242.727-.081.242.323.242.646.565.646.404 0 .727.081.727.808-.081.565-.323.646-.323.889 0 .242 0 .807.323.807.242 0 .404-.081.484-.081.081 0 .162-.162.243-.162.161 0 .646-.242.808-.485.161-.323.727-.807.969-.888.323 0 .727.161 1.049-.243.162-.404.485-.565.646-.565.161 0 .161-.081.404 0 .242.161.808.081.969-.081.242-.081.242-.162.484-.162.646 0 .808.162.97-.162.242-.323.242-.323.565-.323.242 0 .323 0 .485.404.081.242.323.242.323.484 0 .323 0 .646.162.727.161 0 .404 0 .727-.323.081-.081.242-.323.323-.565a19.574 19.574 0 0 1 2.746 4.28l-4.441 6.218c-1.457-.321-3.637-.805-6.383-.805z"/><path d="M68.625 32.108c16.798 0 30.285 13.567 30.285 30.285S85.423 92.678 68.625 92.678c-16.717 0-30.204-13.567-30.204-30.285 0-16.717 13.487-30.285 30.204-30.285zm-22.613 16.96c-.162-.565-.404-1.696-.243-3.311a26.928 26.928 0 0 0-3.957 7.915 27.437 27.437 0 0 0-1.454 8.722c.808-1.453 1.696-2.261 2.1-2.503.161-1.938.323-3.795.888-5.653.647-1.94 1.616-3.555 2.666-5.17zm-3.069 13.083c-.484.242-1.615 1.131-2.422 2.907a28.272 28.272 0 0 0 3.876 11.791c1.615.889 3.068.969 3.715.889-.808-2.746-1.05-5.653-.565-8.48-2.1-1.858-3.635-4.442-4.604-7.107zm31.335-25.359a8.606 8.606 0 0 1 3.15-1.292 28.675 28.675 0 0 0-8.803-1.373c-3.069 0-5.977.484-8.722 1.373 1.615.323 2.665.969 2.988 1.292 1.938-.484 3.795-.889 5.734-.889 2.019.001 3.876.405 5.653.889zm-13.244 1.05c-.404-.403-1.696-1.131-3.635-1.373-3.795 1.615-7.268 4.2-10.014 7.269-.323 1.938.081 3.312.243 3.796 2.422-1.535 5.168-2.746 7.995-2.988 1.211-2.666 3.149-5.007 5.411-6.704zM94.791 59.89c.484.243 1.373 1.05 2.18 2.503a27.41 27.41 0 0 0-1.454-8.722c-.969-2.907-2.261-5.573-3.957-7.915.162 1.615-.08 2.746-.323 3.311 1.13 1.615 2.019 3.23 2.584 5.169.647 1.858.889 3.716.97 5.654zM79.124 86.459c-.081.565-.646 1.615-1.696 2.827 2.746-.888 5.411-2.18 7.833-3.957 2.423-1.857 4.603-3.958 6.299-6.299-1.534.646-2.665.808-3.23.808a21.702 21.702 0 0 1-4.119 4.038c-1.534 1.13-3.23 1.937-5.087 2.583zm10.094-8.721c.646.081 2.019 0 3.715-.889a28.26 28.26 0 0 0 3.877-11.791c-.808-1.776-2.019-2.665-2.423-2.907-.969 2.665-2.584 5.25-4.684 7.107.565 2.826.323 5.734-.485 8.48zm-13.729-6.057a28.225 28.225 0 0 1-5.653 3.149v7.672c1.858 1.05 4.765 2.261 8.157 2.1 1.777-.646 3.392-1.373 5.007-2.423 1.615-1.131 2.746-2.503 3.876-3.957 1.292-3.311.888-6.38.484-8.479l-7.268-2.262c-.887 1.05-2.503 2.665-4.603 4.2zM49 79.837c-.565 0-1.696-.162-3.231-.808 1.696 2.342 3.795 4.442 6.219 6.299a29.028 29.028 0 0 0 7.915 3.957c-1.05-1.211-1.615-2.261-1.696-2.827-1.858-.646-3.554-1.454-5.169-2.584A23.8 23.8 0 0 1 49 79.837zm11.468 6.865c.081.565.566 1.857 2.019 3.312 3.958.888 8.318.888 12.356 0 1.373-1.454 1.938-2.746 2.019-3.312-2.826-.081-5.733-.646-8.237-2.18-2.423 1.534-5.331 2.099-8.157 2.18zm1.373-15.021c-.082-.081-.243-.162-.404-.243h.081c.161-.323.646-.969.969-1.534.161-.161.242-.323.323-.484 1.696 1.292 3.553 2.261 5.815 3.311 4.038-1.696 6.945-3.795 9.852-7.107-.161-2.019-.564-3.795-.969-5.491.161-.081.404-.162.646-.243.242-.081.242-.081.727-.081.403.081.808.242 1.211.484.484 1.938.727 3.634.808 4.765l7.187 2.423c1.616-1.454 3.634-3.795 4.604-7.107 0-2.019-.162-3.634-.808-5.572-.646-1.857-1.534-3.23-2.584-4.845-.404-.323-.888-.646-1.212-.889v-.161c.162-.485-.081-1.292.081-1.535.081-.162.243-.242.323-.485.403.162.727.404 1.211.646.161-.484.484-1.858.242-3.796-2.826-3.069-6.218-5.653-10.175-7.269-1.857.242-3.069.97-3.553 1.373.646.485 1.292 1.05 1.776 1.535l-.08.081c-.243.081-.404.484-.646.808-.162.242-.323.646-.565.889-.727-.808-1.534-1.615-2.584-2.181-1.858-.646-3.554-.969-5.492-.969-1.858 0-3.554.323-5.411.969-2.988 1.857-4.523 4.603-5.331 6.461l.566.969c-.162 0-.323.081-.485.081-.162.081-.969.727-1.373.889-.161 0-.242.081-.323.081l-.323-.484c-2.181.162-5.169.808-7.915 2.988-1.131 1.615-2.019 3.068-2.584 4.845-.646 1.938-.808 3.554-.808 5.572.889 3.312 2.988 5.653 4.604 7.107l3.795-1.292v.484c.081.404.404.889.485 1.454 0 .161.081.323.081.484l-3.634 1.131c-.485 2.099-.808 5.168.403 8.479 1.212 1.454 2.343 2.826 3.958 3.957 1.615 1.212 3.068 1.776 4.926 2.423 3.473.162 6.299-1.05 8.238-2.1V74.83c-1.453-.565-3.392-1.534-5.653-3.149zm-3.15-15.345c.404-.969.889-1.857 1.212-2.584.161.08.646.322.888.484.243.161.646.403.888.484.081.081.243.081.484.242-.484.565-.727 1.292-1.13 2.019h-.162c-.404-.081-.808-.161-1.05-.242-.242-.162-.646-.243-.808-.323-.079.001-.16-.08-.322-.08z" fill="#335799"/><path d="M55.461 40.265c.081 0 .323.081.323.081-.081.081-.242.081-.323.161 0 .162.323.242.242.323-.081.081-.323.242-.485.404-.161.323 0 .646-.161.888-.162.081-.242.081-.242.162h.323c.08.162.08.323 0 .404 0 .161-.081.242-.323.323-.081.081-.323.161-.323.161 0 .162.404.162.323.242 0 .323-.969.323-1.211.404-.808.081-1.373.485-1.373.162-.081-.323 1.211-.646 1.211-.808 0 0-.081 0-.162-.081-.162 0-.242-.081-.162-.162 0-.081.323-.161.323-.161s.162-.081.162-.162c.081-.081-.081-.323-.081-.403.081-.081.403-.081.646-.162.162-.162.162-.323.243-.485 0-.242-.081-.323-.081-.403.081-.081.242-.081.323-.162.162-.161.081-.323.081-.323.081-.162.404-.162.404-.162.08-.081.161-.081.161-.081s.081-.16.162-.16zM88.492 46.887c-2.1-1.292-4.442-2.181-6.784-2.342-.888-1.938-2.181-3.634-3.715-5.168.323-.162.484-.323.646-.323.162-.162.243-.323.646-.323.323 0 .485 0 .969.161.323.162.646.323 1.131.242.404-.081.565 0 .727-.081.161-.081.646-.404.888-.485.081-.081.242-.161.485-.242 1.938 1.13 3.715 2.665 5.41 4.28-.08.081-.242.162-.242.323-.403.565-.727.727-.888.888-.081.243-.484.565-.484.888 0 .404-.081.565.242.565.404.081.808.081.969.242.081.162.403.324.161.889-.081.163-.161.244-.161.486zM68.625 53.348c2.261 0 4.361.323 6.137.727 1.212 2.1 2.1 4.039 2.746 6.058-.242.242-.565.322-.646.403-.161.081-.403.323-.646.646-.162.323-.565.969-.889 1.13-.242.162-.727.404-.727.727 0 .323-.162.969-.242 1.211-.081.323-.323 1.05-.565 1.05-.323.081-.323.081-.484-.242-.081-.242-.404-.808-.889-1.211-.242-.323-.808-1.131-.889-1.373-.081-.242-.161-.969-.403-1.292-.323-.485-.565-.565-.889-.808-.323-.323-.727-.646-.969-.969-.404-.404-.727-.646-1.292-.727-.646 0-.808 0-1.049.081-.323.161-.566.242-.566.646 0 .242-.081.404.081.565.242.162.727.808 1.05.889s.646.323.727.484c.242.081.565.485.565.727 0 .162-.081.323-.323.565-.242.162-.727.565-1.373.727-.727.081-1.535.323-1.777.162-.162-.081-.242-.323-.242-.727.081-.323 0-.728-.162-1.05-.242-.243-.565-1.05-.727-1.454-.081-.484-.242-1.05-.646-1.373-.242-.242-.646-.403-.969-.323-.242.081-.323.323-.323.646-.081.323 0 .808.081 1.292.081.323.161.808.161 1.13 0 .243.161 1.292.242 1.616.081.323.565 1.292.646 1.534.161.162.323.565.646.646.242.162.323.162.565.162.243 0 .727 0 .727.081 0 .161.081.403-.081.565-.162.243-.162.404-.242.485-.081.081-.323.323-1.292.808-.242.081-.323.727-.404.969-.081.161-.242.484-.484.888-1.373-1.05-2.665-2.342-3.958-3.796.243-3.311.969-5.976 2.181-8.642.565 0 1.695 0 1.857.081.242 0 .727-.081 1.05-.162.242-.161.484-.404.484-.888 0-.565-.162-.808-.484-.888-.404 0-1.05.081-1.777-.162.081-.323.243-.565.404-.889 1.778-.402 3.717-.725 6.059-.725zm-1.858.969c-.323.081-.565.323-.484.646.162.242.162.404.404.565.081.242.081.404 0 .484 0 .162 0 .404.081.727.081.242.162.485.565.404.404-.081.485-.323.565-.565.081-.162.081-.565.161-.646.081-.081.081-.323 0-.565-.161-.162-.565-.808-.727-.888-.081-.162-.323-.242-.565-.162zM113.285 50.845c-2.02 0-3.715.242-5.088.565l-.08-.081c-.082-.323-.244-.484-.486-.807-.322-.404-.887-.969-1.211-1.454-.242-.323-.404-.889-.646-1.696-.322-.808-.645-1.938-.807-2.261-.162-.485-.566-.727-.889-.889-.404-.161-.564-.323-.727-.404.646-1.13 1.533-2.503 2.746-3.634.08.081.162.081.162.081.322.081 1.211.727 1.533.565.324-.162.889-.484 1.211-.646.404-.162.889-.323 1.373-.485.404-.081.727-.161.889 0 .242.242.809.323 1.051.162.322-.242.887-.404 1.373-.323h.645c.082.081.324.081.484.081.162.081.404.404.729.404.242 0 .564.081.402.323-.08.323-.322.484-.646.565-.16.081-.564.081-.887.243-.242.161-.646.484-.727.727-.242.242-.242.565 0 .727.242.162.645.242.969.323.322.081.645.081.969.242.242.242.564-.081.727.323.082.404.082.565.162.808.08.161.242.403.484.323.322-.081.484-.242.646-.646.16-.404.322-.808.484-1.05.08-.242.16-.404.08-.727 0-.242-.08-.323-.322-.485-.162-.162-.242-.404-.324-.646-.08-.323.242-.404.404-.404.162-.162.484 0 .889.081.404.162.564.242.727.485.162.323.322.404.404.727.08.323.242.646.322.727.162.081.324.161.646.081.162-.081 0 0 .162 0 .242-.081.322-.081.402.08.242.162.324.243.404.808 0 .565-.08.727-.162.888-.242.161-.402.242-.564.242s-.324 0-.404.081c-.16 0-.242.242-.16.403 0 .162.402 1.05.402 1.292 0 .323.082.727-.402.727-.404 0-1.051.081-1.373.162-.486.162-.971.727-1.293 1.05-.162.323-.162.404-.322.565-.082.242-.242.485-.404.565-.242.081-.484.242-.646.323-.08.161-.16.242-.484.161-.242-.081-.564-.323-.969-.161-.08 0-.484.646-.809.969-.322-.08-.645-.08-1.049-.08zM120.957 57.144c1.211 2.584 1.857 5.249 2.1 8.479-1.211 1.454-2.584 2.746-3.877 3.715-.08-.404-.322-.646-.484-.889-.242-.323-.484-.485-.727-.565a1.689 1.689 0 0 1-.646-.808c-.322-.242-.646-.969-.807-1.292-.08-.404-.324-.727-.324-1.292a4.925 4.925 0 0 1 0-1.534c.162-.565.404-1.292.484-1.373.162-.242.566-.727.646-.888.082-.243.242-.646.082-.888-.082-.162-.324-.646-.646-.727-.242-.081-.404-.081-.727-.162-.162-.081-.729-.323-.889-.565-.162-.081-.404-.323-.566-.485-.242-.242-.564-.565-.807-.565-.322-.08-.566-.161-.889-.242-.404-.162-.727-.242-1.131-.565-.242-.242-.404-.323-.646-.323-.322 0-.484-.323-.727-.565-.16-.162-.242-.162-.564-.565-.162-.404-.162-.404-.324-.727a1.754 1.754 0 0 0-.402-.646c1.211-.162 2.422-.323 3.875-.323-.16.162-.402.404-.727.727-.16.162-.322.404-.242.646 0 .323.082.323.162.484.162.162.322.242.646.242.16-.081.484-.161.646-.161.242 0 .402-.081.484.161.08.323.16.646.402.727.404.081.566.081.646.081.082.081.242.162.322.323.244.323.486.727.646.969.162.161.404.323.566.323.242.081.322.081.402.081.162 0 .404 0 .566.081.08.081.242.161.404.242.08.081.242.243.322-.081.162-.161.242-.565.484-.808.324-.161.404-.323.727-.323.324 0 .809-.081 1.051 0 .167 0 .407 0 .489.081zM120.068 71.681c2.182-1.535 3.715-3.149 4.684-4.2l5.572 1.777c0 .081-.08.162-.08.162 0 .242.08.484-.242.969-.242.565-.646.969-.889 1.05-.16.081-.564.162-.889.485-.322.242-.887.565-1.131 1.211-.242.242-.564 1.131-.969 1.534-.402.323-.807.727-1.211.889-.404.161-.564.242-1.131.242-.484 0-.646.242-.807.484-.082.162-.162.081-.324.323-.322.242-.484.323-.727.565-.242.081-.484.323-.646.565-.16.403-.404.807-.484 1.211-.16.242-.404.646-.564.889-.162.161-.566.403-.727.484-.082.161-.162.242-.242.485-.082.242-.082.484-.404.565-.242.081-.322.243-.404.323-.08.161-.162.323-.322.242-.242-.081-.324-.242-.404-.646s-.322-1.292-.322-1.696c0-.323 0-.646.16-1.131.242-.404.324-.646.324-1.05.08-.404.08-.484 0-.808-.082-.242-.162-.323-.082-.969 0-.242.324-.808.484-1.05v-.081c0-.242.244-.565.324-.808.16-.404.404-.727.484-.969s.08-.323.162-.404c.243-.159.485-.401.807-.643zM103.916 39.458a12.337 12.337 0 0 0-2.664 3.23h-.162c-.322 0-.564-.081-1.131.081-.242.08-.646.161-.969.242-.242.081-.404.161-.564.161-.162-.081-.082-.323-.082-.403.082-.162.324-.323 0-.485-.242-.081-.322-.242-.322-.485.08-.161.242-.565.564-.727.162-.242.484-.727.646-.888.324-.162.566-.485.727-.485.162.162.566-.161.809-.242.322-.081.807-.242 1.211-.242.484 0 .807 0 1.293.081.16 0 .322.081.644.162z" fill="#335799"/><path d="M119.02 36.792c.402-.323 1.371-.969 2.988-1.292-5.572-1.777-11.791-1.777-17.525 0a8.6 8.6 0 0 1 3.148 1.292c1.777-.484 3.635-.889 5.654-.889 1.938.001 3.795.405 5.735.889zm-13.973 49.91c.082.565.646 1.857 2.02 3.312 4.119.888 8.398.888 12.438 0 1.453-1.454 1.857-2.746 2.018-3.312-2.826-.081-5.732-.646-8.236-2.18-2.506 1.534-5.414 2.099-8.24 2.18zm18.656-.243c-.082.565-.646 1.615-1.695 2.827 5.652-1.857 10.658-5.492 14.133-10.256-1.455.646-2.666.808-3.23.808-1.131 1.454-2.344 2.826-4.039 4.038-1.616 1.13-3.311 1.937-5.169 2.583zm10.176-8.721c.564.081 2.018 0 3.795-.889a32.054 32.054 0 0 0 3.795-11.791c-.887-1.776-1.938-2.665-2.502-2.907-.969 2.665-2.504 5.25-4.604 7.107.647 2.826.323 5.734-.484 8.48zm5.572-17.848c.404.243 1.291 1.05 2.1 2.503 0-5.976-1.857-11.791-5.41-16.636.16 1.615 0 2.746-.244 3.311 1.051 1.615 2.02 3.23 2.666 5.169.566 1.857.726 3.715.888 5.653zm-5.168-12.356c.242-.484.564-1.858.242-3.796-2.746-3.069-6.219-5.653-10.016-7.269-1.938.242-3.23.97-3.553 1.373 2.18 1.696 4.119 4.038 5.33 6.703 2.827.243 5.653 1.454 7.997 2.989zm-20.998-15.426c16.717 0 30.285 13.567 30.285 30.285s-13.568 30.285-30.285 30.285a30.154 30.154 0 0 1-22.29-9.771c.484-.565.888-1.05 1.211-1.615 3.392 3.634 7.592 6.542 12.276 7.995-1.051-1.211-1.455-2.261-1.697-2.827-1.775-.646-3.473-1.454-5.088-2.584-1.614-1.212-2.906-2.584-4.118-4.038h-.081c.404-.727.889-1.454 1.292-2.262.081.243.242.485.242.646 2.665 3.473 4.766 5.007 8.883 6.38 3.555.162 6.381-1.05 8.158-2.1V74.83a28.227 28.227 0 0 1-5.654-3.149c-2.1-1.535-3.715-3.149-4.604-4.2l-3.553 1.05c.162-.889.404-1.777.484-2.666l2.262-.808c.08-1.454.484-3.634 1.291-6.218.889-2.584 1.939-4.522 2.666-5.815l-4.441-6.057c-1.455.081-3.23.404-5.089 1.292-.323-.727-.727-1.292-1.13-1.938 1.857-.969 3.875-1.615 5.895-1.776.324-.646.646-1.211 1.051-1.857.322.081.404.161.727.242.646.162.727.404 1.049.646.082.081.244.162.324.242a34.925 34.925 0 0 0-.889 1.616l4.523 6.218c.322-.081.727-.162 1.211-.242.162.242.162.404.242.969.08.484.08.484.242.888.08.081.08.162.08.243.082 0 .082 0 .162.081.08 0 .08.081.162.081-.646.081-1.293.323-1.857.403-2.262 3.796-3.312 7.107-3.797 11.549 2.908 3.312 5.814 5.411 9.854 7.107 2.262-1.05 4.119-2.1 5.895-3.392v.323c.082.565.242 1.373.242 1.776 0 .404-.08.646-.16.889-1.857 1.292-3.555 2.019-4.686 2.503v7.672c1.777 1.05 4.604 2.261 8.076 2.1 4.039-1.373 6.301-2.907 8.885-6.38 1.211-3.311.889-6.38.402-8.479l-1.615-.485c0-.404 0-.888.082-1.292 0-.403.322-.727.564-1.05v-.08l1.777.646c1.535-1.454 3.635-3.795 4.521-7.107-.08-4.28-.887-6.864-3.391-10.417-2.746-2.181-5.734-2.827-7.754-2.988l-4.604 6.057c.729 1.131 1.615 2.908 2.424 5.008h-.162c-.322.081-.646 0-1.049-.162-.404-.162-.646-.323-1.213-.565-.16-.08-.322-.161-.564-.161-.484-1.05-.969-2.019-1.615-3.069-1.777-.403-3.715-.727-6.057-.727h-.324c.162-.323.242-.484.324-.565.242-.242.564-.888.564-1.05.082-.162.242-.323.404-.727l.08-.081c2.262.081 4.039.404 5.25.727l4.441-6.218c-.807-1.858-2.342-4.604-5.33-6.461-4.037-1.292-6.783-1.292-10.902 0-.646.323-1.131.727-1.695 1.211-.162-.081-.566-.323-.727-.323-.242-.162-.566-.242-.971-.242-.08-.081-.322-.162-.484-.162.484-.565 1.131-1.13 1.777-1.615-.484-.403-1.615-1.131-3.553-1.373-3.797 1.615-7.108 3.958-9.934 7.026-.323-.565-.727-1.05-1.211-1.534 5.496-6.06 13.409-9.856 22.294-9.856z" fill="#335799"/><path d="M124.188 58.84c-.08-.243-.162-.565-.242-.807.162.081.404.081.564.242.242.323.484.404.809.565.16.162.404.323.564.404.082.242.404.404.566.808.16.484.16.889.242 1.131.08.161.402.565.484.888.162.162.404.565.807.646.324.081.566.242.809.242.08.081.322.162.402.162.162 0 .324.081.566.162.162.081 1.131.404 1.291.565.244.161.729.403.729.888.08.323 0 .727-.162 1.05-.08.162-.404.727-.646 1.05l-5.492-1.777c-.081-1.455-.403-3.635-1.291-6.219zM52.15 41.638c.323-.242.565-.081.646 0 .081 0 0 .161-.162.323-.081.161-.242.565-.484.727-.162.161-.323.242-.565.323-.323.081-.404-.565-.242-.808.323-.081.323-.242.404-.323.08-.081.161-.161.403-.242zM120.148 82.018c-.242.081-.564.242-.564.484-.08.161-.08.242.162.404.242.161.484.242.727.323.402.243.646.243.807.243.082 0 .162-.081.162-.243 0-.162-.162-.565-.322-.888-.162-.242-.324-.404-.484-.404-.163-.081-.245-.081-.488.081zM101.816 76.768c.324.081.404.081.484.162.162.081.324 0 .162-.323s-.322-1.211-.564-1.534c-.082-.243-.242-.727-.566-.485-.404.162-.564.081-.889.081-.322-.081-.564 0-.402.162.08.243.16.323.402.323.242.081.324.081.484.323.162.162.324.323.324.565 0 .404-.242.646.08.646.163 0 .243-.081.485.08zM101.656 78.141c.08.242.16 1.373.16 1.696 0 .161.082.484-.08.727-.162.323-.322.565-.08.727.16.161.242.081.484-.081.16-.243.242-.404.402-.484.242-.162.242-.485.162-.728 0-.323-.08-.888 0-1.05.08-.323.08-.646-.08-.727-.242-.081-.324-.323-.404-.484-.08-.243-.242-.323-.404-.243-.242.001-.242.163-.16.647zM33.737 60.051c-.081-.081-.243-.242-.081-.404 0-.242.081-.485.323-.565.162-.162.323-.162.646-.162.242.081.404.162.565.323.243.242.243.404.243.565 0 .161-.162.323-.243.484-.081.161-.323.242-.484.242v-.242c.081 0 .162 0 .243-.161.081-.081.161-.162.161-.323 0-.162 0-.323-.161-.404-.081-.162-.243-.162-.323-.243-.243 0-.404 0-.565.081-.081.162-.162.242-.243.404 0 .162 0 .242.081.323 0 .081.081.081.243.162l-.081.322c-.163-.079-.244-.16-.324-.402zm1.857-1.131a5.443 5.443 0 0 0-.889-.565c-.404 0-.727 0-.969.323-.323.162-.484.404-.565.888-.081.323 0 .566.242.969.242.242.484.404.808.404.484.081.727 0 1.05-.162.323-.242.485-.484.485-.888.08-.323 0-.726-.162-.969zm-2.342 1.697c-.243-.323-.323-.727-.243-1.131 0-.484.243-.727.646-.969.242-.323.646-.404 1.05-.323s.808.323 1.05.646c.161.323.323.727.242 1.13-.081.404-.242.727-.565.97-.404.322-.727.403-1.211.322-.404-.08-.727-.322-.969-.645zM34.787 63.201l.242.081c0 .242.081.404.081.565.081.081.323.161.485.242v.242h-2.988v-.404h2.181v-.726h-.001zM33.333 65.785a.443.443 0 0 0-.403.242v.242c0 .243.081.404.242.485.081.081.484.161.889.161-.162 0-.243-.161-.243-.242-.081-.081-.081-.323-.081-.404-.081-.323 0-.484.161-.646.162-.242.404-.323.727-.323a.627.627 0 0 1 .646.162c.242.243.404.404.404.727 0 .484-.162.727-.565.888-.161.162-.484.162-.808.323-.323 0-.646-.162-.969-.243-.484-.161-.727-.403-.808-.888 0-.242.081-.484.323-.565.081-.243.242-.323.484-.323v.404h.001zm.808.888c.081.162.242.162.565.162.243 0 .323-.081.484-.162.081-.081.081-.323.081-.484s-.081-.242-.162-.404c-.161-.081-.323-.081-.484-.081-.243 0-.404.081-.484.161a.616.616 0 0 0-.162.404c0 .243.081.324.162.404zM35.998 69.662l-.242.081-.646-.323c-.161-.081-.404-.162-.808-.243-.242-.161-.404-.242-.646-.242-.162-.081-.403-.081-.727-.081v-.404c.484 0 1.131.162 1.776.404.323.081.565.323.889.485l-.162-1.615.323-.081.243 2.019zM36.563 72.327l-.243.081c-.161-.081-.404-.162-.646-.243-.162-.081-.565-.162-.808-.242-.242 0-.565-.081-.727-.081h-.727l-.081-.404c.565-.081 1.212 0 1.777.162.404.081.727.323.969.403l-.323-1.615.323-.08.486 2.019zM37.209 74.023l.727 1.938-.323.162-.646-1.535-.807.323.565 1.454-.324.08-.565-1.453-1.292.565-.242-.404 2.907-1.13zM38.34 76.607l.161.323-2.826 1.373-.162-.404 2.827-1.292zM38.825 77.738l.968 1.857-.323.242-.807-1.534-.808.404.727 1.373-.323.161-.726-1.292-1.212.565-.242-.323 2.746-1.453zM39.309 82.099l.808-1.131-1.373.323.565.808zm1.05-1.616l.242.404-1.857 2.665-.242-.404.565-.807-.646-.969-.969.323-.242-.404 3.149-.808zM136.625 97.523c.484 0 .969.08 1.373.324.484.242.807.564 1.049 1.049.242.404.404.889.404 1.373s-.162.969-.404 1.373a2.445 2.445 0 0 1-.969 1.049c-.484.242-.969.404-1.453.404s-.889-.162-1.373-.404c-.404-.242-.809-.564-1.051-1.049-.242-.404-.322-.889-.322-1.373s.08-.969.322-1.373c.324-.484.646-.807 1.051-1.049a3.067 3.067 0 0 1 1.373-.324zm0 .405c-.404 0-.729.162-1.131.322-.324.242-.646.484-.889.889-.162.324-.242.727-.242 1.131s.08.807.242 1.211c.242.324.484.646.889.809.402.242.727.322 1.131.322.402 0 .807-.08 1.211-.322.322-.162.646-.484.807-.809.242-.404.324-.807.324-1.211s-.082-.807-.324-1.131c-.16-.404-.484-.646-.889-.889-.322-.16-.727-.322-1.129-.322zm-1.213 3.877v-2.988h1.051c.322 0 .564.08.727.08.162.08.322.162.404.322.08.082.16.244.16.404 0 .242-.08.404-.242.566-.16.16-.402.242-.645.322.16 0 .242.08.242.162.16.08.322.322.484.564l.322.566h-.564l-.242-.484c-.242-.324-.404-.566-.484-.646-.162-.082-.242-.082-.404-.082h-.324v1.213h-.485v.001zm.484-1.698h.566c.322 0 .484 0 .646-.08.08-.08.08-.242.08-.324v-.24c-.08-.082-.162-.162-.242-.162-.08-.082-.242-.082-.484-.082h-.566v.888zM20.509 147.316c-.337-.898-.898.225-1.347.336-.897 1.01-2.58 1.795-2.58 3.254.112.338.224.561.561.561 1.009.225 2.468.113 3.141-.785.786-1.01.674-2.356.225-3.366zm4.599-8.752c-.112 1.01-1.234.898-1.907 1.348-.897.672-.897-1.123-1.795-.449-1.571.336-3.029.561-4.6.898-.449 1.008-.561 2.131-1.01 3.141-.449.336-.336.896-.449 1.346-.336.449-.449.898-.561 1.459 1.57-.225 2.917-.898 4.599-1.01.449-.111 1.01-.225 1.571-.336.224.111.336.336.561.561 1.122 0 2.468.111 2.917 1.234-.113.225.112.336.224.449 0 .561.337 1.121.337 1.57h.112c1.122-1.348 2.244-3.59 4.263-3.367.113.225.449.113.562.449.112.225 0 .449-.112.674-.449.449-.673-.336-1.122 0-2.356 1.684-3.254 4.264-4.712 6.506-.225.113-.673 0-.785-.223-.112-.225-.112-.449 0-.785.449-1.123 1.009-2.582.561-3.814-.225-.449-.337-1.123-.897-1.348-.449.113-.785-.336-1.122 0 .673 1.459.785 3.143-.112 4.488-1.01 1.346-2.468 1.795-4.151 1.682-.449-.223-1.122-.111-1.571-.672-.449-.336-.561-.898-.785-1.459.112-.111.112-.336.112-.561.112-.449.561-.674.561-1.123.674-.896 1.571-1.57 2.244-2.355a11.948 11.948 0 0 0-3.927 1.01c-1.01 2.355-2.02 4.824-2.581 7.404-.112.562.449 1.012-.224 1.123-.562-.449-.674-1.01-.674-1.684.225-.449.337-1.121.449-1.684a39.58 39.58 0 0 1 1.683-4.711l-.224-.225c-1.122.336-2.356.561-3.59.449-.113-.225-.337-.449-.449-.674.112-.225.449-.225.449-.449 1.458.113 2.917-.336 4.375-.672.673-2.02 1.459-3.928 2.132-5.834-.336-.449-.786.111-1.122 0-.785.111-1.458.336-2.131.336-.673.338-1.571.225-2.356.225-.337-.336-.673-.785-.337-1.234.898-.561 1.795.336 2.693-.111 1.122-.225 2.356-.338 3.478-.674.112-.113.112-.336.112-.561.337-.113.897-.225 1.01.336 2.58-.336 5.049-1.234 7.854-1.121l.447.448zM75.933 149.447c0-.447.224-1.346-.449-1.57-.337.225-.561.561-.785.785-.449.561-.673 1.459-.898 2.02.225.336 0 1.123.562 1.01.784-.561 1.233-1.46 1.57-2.245zm4.712-1.121c-.225.111-.337 0-.449-.225-.336-.113-.897-.336-.897.225-.224.896-.336 2.131.561 2.805.673 0 1.01-.898 1.346-1.459.112-.449 0-1.121-.561-1.346zm6.507-.785c-.112-.225-.336-.225-.561-.225-1.122.449-1.683 1.795-1.795 2.805 1.122-.225 1.57-1.57 2.356-2.469v-.111zm-16.269-8.977c.562.898-.224 1.684-.448 2.469-.224.449-.561.785-.786 1.123-.224.111-.449.111-.673.111-.786-.672.337-1.346.337-1.906.112-.225.561-.449.336-.787-.112-.111-.336-.225-.561-.111-.448.449-1.122 1.01-1.795 1.346-1.683 1.684-3.254 2.918-4.487 4.824-.786 1.01-1.795 2.02-2.244 3.143-.561.561-.336 1.346-.786 2.02.337.111 0 .449 0 .785.225.336.225.672.561.896 3.479.113 6.059-2.355 8.639-4.6l-.224-.111c-1.01.223-2.244.336-3.142 0 0-.338-.561-.561-.225-.898.225 0 .225-.561.561-.336.561.561 1.122.111 1.907.225l3.029-.561c.337-.113.337-.562.674-.338.449.449 1.122-.111 1.683-.111.898 0 2.02-.113 2.469.896.673.113 1.122.562 1.347 1.123.785 0 1.233-.898 2.131-.898.336-.449.897-.225 1.234-.225.673.449 1.571 0 2.244-.111 1.346-.336 2.692-.898 4.151-.674.449.111.561.561 1.01.561.449-.672.673-1.57 1.01-2.355a60.519 60.519 0 0 1 1.907-3.814c.336-.225.673.113.898.225-.562 2.58-2.02 4.824-3.03 7.293-.112 1.346-1.122 3.141.225 4.264 1.009.223 1.458-1.123 2.244-1.123.225.225.112.561.112.785-.673.785-1.57 1.459-2.581 1.234-.561-.336-1.346-.561-1.346-1.346-.112-.674.112-1.348-.225-2.02-.448.672-1.122 1.01-1.458 1.684-.448.447-.897 1.008-1.57.672-.225-.225-.562-.225-.786-.561-.112-.225 0-.449 0-.674.224-.111 0-.336.224-.561.113-1.121 1.011-2.02 1.347-3.029-.561 0-1.234.225-1.795.336-.336.225-.673.225-.898.449.225 1.346 0 2.469-.561 3.59-.449.449-1.122.898-1.683.785-.673-.223-1.571-.672-1.683-1.457-.448-.674.112-1.348-.224-2.133-.336.113-.561.225-.897.113-.337.561-.112 1.234-.562 1.57-.225 1.01-.897 2.02-1.795 2.58-.673.225-1.234-.336-1.795-.785-.561-1.908.449-3.703 1.571-5.16-.561-.338-1.347 0-1.907 0-1.122.111-1.01 1.346-1.459 2.02-.225.785-.336 1.682-.897 2.467-.449.674-.449 1.459-1.01 2.244-.224 1.01-.897 1.908-1.01 3.029-.448.225 0 .674-.336.785 0 1.01-.786 1.795-.561 2.693 0 .225-.336.336-.561.225-.673-1.348-.112-2.805.336-4.039 1.01-2.693 2.02-5.273 3.142-7.854-.113-.225-.225 0-.449-.225-.336.674-1.122.561-1.346 1.346-1.458 1.234-3.029 2.244-4.712 3.254-.449.111-1.122.449-1.571.336-.673.562-1.571.449-2.244.113-.224 0-.561-.113-.673-.449-.337-.561-.561-1.234-.449-1.908.785-4.15 3.927-7.404 7.18-10.545 1.346-1.01 2.917-3.03 4.936-1.909zM50.016 147.652c-.112-.225-.336-.111-.448-.111-.786.674-1.123 1.57-1.347 2.58 1.009-.449 1.907-1.459 1.795-2.469zm-2.917-4.039c.224.225.336.449.336.674-.113.336-.336.561-.673.561-1.01-.896-2.244-.561-3.478-.449-.336.225-1.122-.111-1.458.562-.449.785-.336 1.795-.785 2.467 0 1.01-.562 1.684-.449 2.693 0 .225-.336.449 0 .674 1.234-1.123 2.469-3.928 4.488-2.807.897.898.112 2.357 1.234 3.029.336 0 .673-.111.673-.447.225-1.57.898-3.254 2.356-4.152.562 0 1.123 0 1.571.225.336.449.561.898.336 1.459-.336 1.459-1.795 2.693-3.029 3.59-.112.338 0 .674.336.785.673.898 1.458-.447 2.132.449-.112.225-.224.449-.449.674-.336.225-.898.111-1.234.111-1.01-.225-1.684-1.01-2.244-1.682-.785-.225-1.795-.225-2.132-1.234-.224-.562-.112-1.234-.449-1.795-.449 0-.786.561-1.234.785-.785.785-1.234 1.795-2.132 2.467-.337 0-.897.225-1.122-.223-.673-2.357.337-4.713 1.01-6.957 0-.111-.112-.111-.112-.111-.336-.113-.785.225-1.122.111-.225.225-.673.113-.897.336l-.113.113c-.224.336-.336.785-.448 1.234-.224.785-.449 1.682-.562 2.58-.336 1.01-.224 2.131-.112 3.254 0 0 .112.447 0 .672 0 .338-.449.113-.673.113-1.234-2.131-.224-4.488.225-6.619 0-.338.112-.561.225-.898 0-.111-.112-.225-.112-.225-.561-.447-1.907 0-1.795-1.121.336-.225.561-.561 1.01-.225.561-.225 1.122.449 1.458-.336a49.94 49.94 0 0 1 .561-1.459c.224-.449.224-.896.673-1.234.336 0 .673 0 .785.338 0 .447-.112.672-.112 1.121 0 0-.449 1.01-.561 1.234-.112.225 0 .225 0 .225.786-.113 1.458-.113 2.132-.449l.337-.113c.224-.225.561-1.234.561-1.234.112-.336.224-.672.785-1.346 0-.111.673-.111.785.225l-.112.674s-.112.561-.561 1.346c0 0-.112.111 0 .111 1.234 0 2.917-.336 4.151.224zM155.367 146.98l-.113-.113c-.898.225-1.684.561-2.355 1.234-.449.785-1.459 1.459-1.234 2.355 1.01-.336 1.795-1.346 2.691-2.02.337-.448.898-.895 1.011-1.456zm20.867.897c-1.234 0-2.244 1.234-2.693 2.244h.561c.787-.449 2.244-1.121 2.132-2.244zm-27.599-8.75c.447 1.234-.449 2.469-1.01 3.477-.674.225-1.123 1.459-1.908.674 0-1.234 1.57-1.682 1.684-2.916-1.01-.449-2.133.223-2.918.785-1.795 1.01-3.814 2.805-5.049 4.486-1.121 1.795-2.58 3.703-1.906 6.059.785.674 2.02.561 3.029.449 2.691-.785 5.049-2.469 7.18-4.488 0-.111.225-.111.113-.336-.562-.225-1.01.336-1.57.336-.787.449-1.684.449-2.357.785-.336-.223-.674-.336-.336-.672.672-1.01 2.02-1.01 3.141-1.348.785-.336 1.684-.336 2.469-.672 2.02-.225 4.039-.561 6.172-.449.561-.111.896.898 1.457.336.225-.111.449.113.561.225-.111 1.459-1.682 2.357-1.457 3.814l.111.561c1.234.113 2.133-.785 3.029-1.346 1.01-.785 1.908-1.795 2.805-2.469.225 0 .674-.111.785.338 0 .785-.785 1.232-.672 2.02h.111c1.01-.787 1.908-1.908 3.143-2.244.336.111.672.111.896.336 0 1.121-.449 2.133-.561 3.254.225.225.449-.225.672-.336.898-.785 1.572-1.908 2.469-2.58.449-.225.785.111 1.234.336.113 1.01-.336 2.355.674 3.029.449-.113 1.121.336 1.346-.225 0-.336.336-.561.336-.785.898-1.572 2.582-2.918 4.488-2.918.785.338.785 1.123.785 1.908-.785.896-1.682 2.02-2.805 2.355-.225.338-.896.225-.785.674 2.355.561 4.6-.449 6.732-1.01 1.01-.338 2.02-.898 3.029-1.234h.447c.225.449-.336.674-.561 1.01-2.805 1.459-5.834 2.58-9.199 2.58-.785-.225-1.908-.336-2.357-1.234-1.232.225-2.467-.225-3.141-1.346-.225-.449-.111-1.01-.225-1.459h-.111c-1.01 1.01-1.795 2.58-3.365 2.469-.225-.111-.674-.338-.787-.674-.111-.896.338-1.682.449-2.467-.111-.338-.336 0-.449 0-1.346.896-2.244 2.355-3.59 3.252-.336 0-.561-.223-.785-.449-.225-.672.449-1.232 0-1.682-.449.449-.785.896-1.459 1.121a3.074 3.074 0 0 1-2.58.898c-.672-.338-1.234-1.01-1.346-1.684-1.01.785-1.908 1.908-3.367 2.244-.561-.225-.896-.785-1.121-1.346 0-1.684 1.346-2.693 2.469-3.928 0-.111 0-.225-.113-.225-1.01.338-2.58-.223-3.141 1.123-.785 1.121-1.234 2.355-2.02 3.59-.785 1.346-1.346 2.805-2.244 4.15 0 1.234-.898 2.02-.561 3.367-.338.225-.562.561-.898.336s-.672-.561-.449-1.121c.785-2.469 2.133-4.826 3.254-7.293 0-.113-.111-.338-.223-.338-.449.449-1.123.674-1.684 1.123-.225 0-.338.225-.562.336-.223.449-.672.674-1.232.674-.785.336-1.57.896-2.469.896-.785.449-1.795 0-2.58 0a2.875 2.875 0 0 1-1.57-1.682c.111-4.938 3.59-8.977 7.629-11.557 1.346-.785 3.029-1.459 4.6-1.121l.224.228zM129.225 147.205h-.336c-.898.672-1.684 1.682-1.684 2.805.338-.225.674-.562 1.01-.674.449-.674 1.123-1.234 1.01-2.131zm-9.424-7.182c-.111.898-.898 1.572-1.123 2.469-.111.225-.111.449-.223.561.672 0 1.682.113 2.242-.449.449-1.008 1.01-2.02 1.795-2.805.338 0 .449.338.674.338-.225 1.01-1.01 1.682-1.459 2.58 1.234 0 2.133-.113 2.918.896 0 .225-.113.562-.336.674-.338 0-.449-.336-.674-.336-.896 0-1.795-.113-2.693.111-.447 1.123-.785 2.244-1.232 3.365-.225.898-.449 1.572-.225 2.469.225.225.672-.225.785-.449.447-.785 1.121-1.459 1.795-2.131.447-.225.785-.785 1.234-.561.336.225 1.01.225.896.785l.113.111c.447 1.01-.338 2.918 1.346 2.805.449-.896.561-2.02 1.234-2.805.336-.561.785-1.234 1.346-1.457.449-.338 1.123-.338 1.684-.113.449.449.672 1.01.561 1.57-.336.674-.561 1.459-1.234 1.908-.225.449-.449.672-.898.896-.447.449-1.008.561-1.346 1.123.113.449.338.672.785.896.561.338 1.459-.672 1.572.338-.113.447-.225.561-.562.785-1.232.336-2.018-.785-2.805-1.348 0-.896-.785-.447-1.234-.896a2.35 2.35 0 0 1-1.457-1.459c.111-.561 0-1.121-.338-1.57-.561 0-1.121.561-1.346 1.01-.561.785-1.234 1.682-2.02 2.244-.449.111-.785 0-1.121-.336-.449-2.582.561-4.826 1.346-7.068-.674.111-1.684 0-2.244.561-.225.672-.225 1.346-.674 1.906 0 .674-.672 1.01-.447 1.684-.225.449-.562.896-.449 1.346-.225.338-.113.785-.338 1.123 0 .336 0 .785-.223 1.01-.338.111-.449 0-.562-.225-.111-2.469.898-4.713 1.572-6.844-.225-.225-.674-.113-1.01 0-.562.111-1.01-.338-1.348-.785 0-.225 0-.449.338-.562.785.338 1.682 0 2.467 0 .898-1.232 1.123-2.58 1.908-3.701.336.112.785-.113 1.01.336zM101.85 149.223c-.674-.785-1.795-.896-2.805-1.008-.449.785-1.01 1.57-.785 2.467.111.336.336.674.672.785.898.113 1.908 0 2.469-.785.449-.336.449-.897.449-1.459zm7.293-7.291c0 .672-.674 1.121-.785 1.795-.898 1.01-.787 2.58-1.459 3.701 0 .561-.449.787-.336 1.348-.449.225-.225.785-.562 1.121.113.336-.336.674.113.898.336 0 .449-.449.561-.674.561-.336.896-1.01 1.459-1.01.447.561-.338.898-.562 1.346-1.232 1.123-1.906 2.693-2.691 4.152-.898.896-.674 2.131-1.346 3.141 0 .449-.674.785-.562 1.346-.336.449-.336 1.123-.785 1.459-.225.225-.561 0-.672-.225-.225-.785.223-1.57.561-2.244 1.684-2.691 2.355-5.834 3.254-8.863.561-1.682 1.346-3.254 1.682-5.047-.225-.225-.336.223-.561 0-.111.447-.674.336-.898.561-1.232.896-2.803.896-4.037 1.906 0 .225-.225.449-.113.674a2.052 2.052 0 0 1 1.459 1.684c.225 1.01-.225 2.131-.898 2.916-.785.785-2.02.674-3.029.561-.785-.225-1.795-.785-1.906-1.682 0-1.348.336-2.807 1.459-3.479 1.121-1.01 2.355-1.684 3.701-2.355 2.02-.785 3.928-1.459 5.723-2.805.111-.338.449-.787.896-.449l.334.224z" fill="#335799"/></g></svg>